# xmcd
#
# Track frame offsets: 
#        150
#        10338
#        25886
#        40448
#        54989
#        66017
#        81783
#        93335
#        107523
#        117271
#
# Disc length: 1707 seconds
#
# Revision: 0
# Processed by: cddbd v1.4PL0 Copyright (c) Steve Scherf et al.
# Submitted via: ExactAudioCopy v0.90b4
#
DISCID=7606a90a
DTITLE=Jim Stafford - Guitar Gold
DYEAR=1900
DGENRE=Country
TTITLE0=Freight Train
TTITLE1=Honky Tonk
TTITLE2=Windy and Warm
TTITLE3=Sleepwalk
TTITLE4=Guitar Boogie
TTITLE5=Apache
TTITLE6=Stardust
TTITLE7=Wheels
TTITLE8=Walk Don't Run
TTITLE9=Tigers Rag
EXTD=
EXTT0=
EXTT1=
EXTT2=
EXTT3=
EXTT4=
EXTT5=
EXTT6=
EXTT7=
EXTT8=
EXTT9=
PLAYORDER=
